<svg width="1140" height="456" viewBox="0 0 1140 456" fill="none" xmlns="http://www.w3.org/2000/svg">
<path fill-rule="evenodd" clip-rule="evenodd" d="M269.3 233.037C267.27 275.62 239.449 314.274 197.103 327.44C154.56 340.668 110.064 324.218 85.0846 289.725C83.4878 290.02 81.9015 290.307 80.3276 290.585C63.0449 293.642 46.6956 295.76 34.0688 295.951C27.8582 296.045 21.7213 295.696 16.5721 294.368C12.3514 293.28 3.79253 290.237 1.02778 281.017C-0.744715 275.106 0.67741 269.711 2.61701 265.84C4.49767 262.086 7.2471 258.916 9.90729 256.355C15.2559 251.205 22.5712 246.331 30.0057 242.029C41.1596 235.575 54.1707 229.511 65.1973 224.877C66.4714 181.542 94.4882 141.923 137.468 128.56C181.048 115.01 226.678 132.602 251.279 168.831C263.515 166.438 280.197 163.799 294.949 162.838C303.11 162.307 311.404 162.236 318.226 163.276C321.594 163.79 325.39 164.685 328.827 166.436C332.244 168.177 336.817 171.586 338.668 177.756C340.153 182.709 339.012 187.147 337.64 190.123C336.306 193.015 334.395 195.376 332.685 197.175C329.246 200.791 324.548 204.262 319.542 207.486C309.353 214.048 295.19 221.283 279.691 228.382C276.305 229.933 272.834 231.487 269.3 233.037ZM245.451 243.056C240.112 271.662 219.76 296.365 190.512 305.459C161.098 314.604 130.486 305.537 110.369 284.595C136.725 278.818 163.365 271.74 182.968 265.645C200.766 260.111 223.295 251.992 245.451 243.056ZM245.737 214.622C221.204 224.854 195.162 234.39 175.435 240.523C153.937 247.207 123.453 255.171 94.686 261.099C93.3559 258.063 92.1945 254.911 91.2168 251.651C78.3892 208.872 102.047 163.603 144.059 150.541C186.07 137.479 230.526 161.57 243.354 204.349C244.378 207.764 245.169 211.194 245.737 214.622ZM263.525 193.259C273.839 191.45 285.924 189.746 296.594 189.052C297.719 188.979 298.811 188.918 299.87 188.869C291.693 193.613 281.116 198.928 269.11 204.427C268.396 204.754 267.679 205.081 266.957 205.408C266.387 202.814 265.716 200.222 264.941 197.637C264.498 196.16 264.026 194.701 263.525 193.259ZM67.9821 252.21C59.5272 255.973 50.5334 260.363 42.7503 264.866C39.8804 266.527 37.299 268.133 35.0406 269.658C44.6626 269.394 57.4588 267.849 72.0027 265.384C71.1375 263.09 70.3453 260.749 69.6298 258.363C69.0159 256.315 68.4671 254.264 67.9821 252.21ZM21.9398 268.584C21.9514 268.579 22.0705 268.619 22.262 268.719C22.0239 268.639 21.9281 268.589 21.9398 268.584Z" fill="#AEFFF7"/>
<path fill-rule="evenodd" clip-rule="evenodd" d="M504.311 125.281C496.945 127.543 496.526 130.861 494.695 201.286L493.567 244.692L489.139 248.541C484.714 252.387 470.159 260.745 467.887 260.745C467.171 260.745 467.418 258.856 468.499 256.072C472.304 246.27 468.372 236.993 451.319 215.54C437.275 197.874 437.997 199.497 439.348 188.596C440.641 178.158 439.565 170.684 436.434 168.368C433.309 166.055 424.815 165.217 420.182 166.765C413.399 169.03 411.26 172.858 411.269 182.717C411.272 187.371 411.826 193.186 412.499 195.639C413.611 199.688 413.291 201.033 409.049 210.195C401.784 225.882 387.737 246.729 371.415 266.046C364.93 273.721 363.85 278.15 367.264 283.082C369.405 286.176 374.891 289.286 378.208 289.286C381.646 289.286 387.153 284.085 397.101 271.448C407.192 258.628 414.809 247.315 422.272 234.065L427.411 224.942L433.29 232.438C442.967 244.775 446.517 251.18 446.517 256.3C446.517 262.264 445.077 264.831 440.706 266.664C435.888 268.683 430.073 267.383 424.739 263.093C419.079 258.542 416.636 258.637 411.732 263.599C407.522 267.859 406.802 271.396 409.246 275.808C417.998 291.6 455.66 291.156 485.004 274.913L493.524 270.197V273.834C493.524 279.469 496.556 285.587 500.008 286.915C505.217 288.919 514.102 288.355 517.191 285.824C519.964 283.553 519.967 283.515 520.911 245.711C521.961 203.651 521.468 205.961 530.541 200.682C536.588 197.165 543.753 196.046 547.583 198.021C553.96 201.309 554.629 205.057 554.639 237.556C554.648 269.237 555.287 274.215 560.192 280.79C564.223 286.193 569.337 288.097 579.819 288.097C590.693 288.097 598.026 285.394 608.926 277.369C615.77 272.33 616.887 271.854 617.472 273.716C618.887 278.23 626.711 284.578 633.219 286.492C645.041 289.97 657.69 286.771 667.47 277.83C672.161 273.541 672.574 273.388 673.79 275.477C676.144 279.526 680.592 284.561 682.933 285.829C686.935 287.997 696.577 288.966 703.383 287.886C711.489 286.599 721.583 281.552 728.528 275.312L733.783 270.589L738.777 276.208C745.573 283.858 753.685 287.409 764.404 287.426C774.715 287.443 783.073 284.616 789.71 278.867C793.19 275.853 794.943 274.969 795.299 276.05C796.297 279.08 802.617 285.438 806.069 286.885C808.223 287.787 813.27 288.175 819.295 287.899C830.84 287.37 838.474 284.248 848.575 275.923L855.171 270.487L859.415 275.626C865.479 282.966 874.785 287.303 884.708 287.415C895.958 287.541 900.391 286.253 908.823 280.412L916.324 275.215L919.101 279.468C923.665 286.457 928.359 288.282 940.681 287.862C949.672 287.555 952.306 286.967 958.257 283.934C962.107 281.972 968.156 277.645 971.699 274.318L978.14 268.268L981.843 273.723C995.388 293.676 1025.92 293.963 1047.96 274.344L1054.16 268.818L1060.04 274.378C1067.54 281.479 1076.15 285.441 1087.11 286.844C1103.34 288.919 1119.41 285.178 1131.75 276.45C1138.46 271.706 1140.69 267.759 1139.46 262.788C1138.45 258.72 1133.1 252.421 1130.66 252.421C1129.58 252.421 1126.13 254.273 1122.99 256.535C1115.38 262.005 1107.44 264.525 1097.83 264.513C1089.04 264.502 1084.23 263.054 1080.13 259.179C1074.21 253.6 1074.45 253.006 1084.89 247.449C1097.05 240.979 1108.76 229.658 1113.47 219.815C1116.19 214.14 1116.94 210.743 1117.34 202.285C1117.79 192.747 1117.54 191.201 1114.66 185.242C1109.36 174.28 1098.19 169.39 1083.63 171.666C1074.14 173.148 1068.12 176.266 1061.17 183.299C1049.69 194.917 1044.1 212.856 1044.99 235.178C1045.51 248.12 1045.48 248.305 1042.16 252.597C1036.38 260.064 1028.14 264.552 1018.99 265.214C1008.35 265.985 1004.35 263.904 1000.54 255.614C998.977 252.223 997.695 248.465 997.689 247.263C997.682 246.06 1001.15 240.709 1005.39 235.371C1014.55 223.827 1022.64 207.869 1025.97 194.746C1029.45 181.024 1030.37 155.7 1027.75 145.395C1025.18 135.278 1021.37 129.629 1015.01 126.512C1005.6 121.9 994.576 123.731 986.524 131.243C976.76 140.348 972.475 157.08 970.714 192.962C970.023 207.049 969.987 221.957 970.622 230.942C971.796 247.534 971.78 247.587 962.815 256.109C955.853 262.724 952.904 264.313 947.585 264.313C943.133 264.313 942.553 263.963 941.384 260.568C939.884 256.215 939.779 206.872 941.172 161.449C941.674 145.098 941.674 130.581 941.174 129.19C938.569 121.965 918.294 122.745 915.575 130.176C915.025 131.679 914.269 141.926 913.895 152.949C913.523 163.97 912.99 173.217 912.713 173.498C912.437 173.778 908.476 173.422 903.914 172.705C883.687 169.529 863.761 179.756 855.151 197.734C850.028 208.433 848.429 216.96 848.429 233.602V248.77L844.61 253.183C836.32 262.76 823.221 267.656 820.401 262.232C817.977 257.568 817.714 242.656 819.106 188.983C819.911 158.012 820.227 131.295 819.81 129.612C818.245 123.302 801.596 122.057 795.943 127.827C793.461 130.361 793.245 131.885 792.479 152.233C792.03 164.169 791.448 173.935 791.185 173.935C790.923 173.935 787.13 173.374 782.755 172.687C757.695 168.752 736.537 183.355 728.918 209.843C727.751 213.899 727.012 222.009 726.847 232.563L726.592 248.975L720.819 254.957C714.751 261.243 707.941 265.502 703.956 265.502C702.653 265.502 700.696 264.129 699.609 262.45C697.811 259.673 697.722 256.247 698.616 224.693C700.065 173.533 700.199 177.644 696.994 175.019C692.754 171.545 680.411 171.809 676.212 175.463C673.22 178.068 673.05 178.867 672.092 194.788C671.542 203.922 671.066 221.135 671.034 233.04L670.977 254.685L665.425 258.55C661.201 261.492 658.3 262.532 653.297 262.898C639.246 263.925 637.463 257.63 638.382 210.205C638.699 193.854 638.538 179.356 638.026 177.986C636.657 174.327 630.867 172.366 623.307 173.001C611.683 173.976 612.026 172.823 611.309 213.253L610.694 248.049L606.461 252.809C599.657 260.459 593.667 264.313 588.579 264.313C581.397 264.313 581.178 263.208 581.518 228.912C581.855 195.01 580.965 189.168 574.286 181.472C563.429 168.959 541.7 169.374 527.068 182.374L522.524 186.411L523.353 158.893L524.181 131.377L521.485 128.27C518.371 124.677 510.651 123.335 504.311 125.281ZM1007.61 150.58C1009.2 158.52 1009.31 162.643 1008.26 173.935C1006.9 188.364 1003.97 199.664 998.894 210.027L995.309 217.34L995.887 191.178C996.494 163.548 998.226 150.858 1001.75 148.254C1004.37 146.315 1006.96 147.344 1007.61 150.58ZM1093.02 196.121C1095.39 199.015 1094.69 208.687 1091.66 215.027C1089.09 220.403 1080.97 227.998 1073.76 231.769L1070.32 233.569L1071.11 224.265C1072.25 210.691 1074.75 202.736 1079.33 198.099C1083.76 193.612 1090.2 192.682 1093.02 196.121ZM790.614 197.247C791.064 197.833 791.169 211.692 790.845 228.043L790.258 257.772L783.794 261.13C772.797 266.84 762.359 264.21 757.597 254.526C754.519 248.267 752.92 236.47 753.738 226.055C754.961 210.48 759.02 202.214 767.624 197.774C771.779 195.63 774.09 195.275 781.212 195.685C785.933 195.958 790.164 196.661 790.614 197.247ZM910.05 196.5L913.064 197.659L913.056 227.121L913.048 256.583L909.237 259.129C899.834 265.408 888.946 265.641 882.658 259.695C877.145 254.484 875.079 245.306 875.694 228.745C876.084 218.199 876.775 213.673 878.633 209.474C881.116 203.863 887.45 197.734 892.197 196.351C896.362 195.136 906.73 195.223 910.05 196.5Z" fill="white"/>
</svg>
